<mxfile host="app.diagrams.net" modified="2021-06-09T07:59:35.594Z" agent="5.0 (Windows NT 10.0; Win64; x64) AppleWebKit/537.36 (KHTML, like Gecko) Chrome/91.0.4472.77 Safari/537.36" etag="T4va74PNpWR0mscKqm8X" version="14.7.6" type="github">
  <diagram id="OnPQ22n1bFdFjmadFdNy" name="Page-1">
    <mxGraphModel dx="1422" dy="794" grid="0" gridSize="10" guides="1" tooltips="1" connect="1" arrows="1" fold="1" page="1" pageScale="1" pageWidth="3300" pageHeight="4681" math="0" shadow="0">
      <root>
        <mxCell id="0" />
        <mxCell id="1" parent="0" />
        <mxCell id="UDYRAPNue_7V9_LFrcEU-1" value="&lt;font style=&quot;font-size: 20px&quot;&gt;Input &lt;br&gt;150*150*3&lt;/font&gt;" style="rounded=1;whiteSpace=wrap;html=1;fillColor=#dae8fc;strokeColor=#6c8ebf;" vertex="1" parent="1">
          <mxGeometry x="50" y="190" width="120" height="70" as="geometry" />
        </mxCell>
        <mxCell id="UDYRAPNue_7V9_LFrcEU-4" value="&lt;font style=&quot;font-size: 20px&quot;&gt;Conv 2D&lt;br&gt;&lt;br&gt;3*3*32&lt;/font&gt;" style="rounded=1;whiteSpace=wrap;html=1;fillColor=#f5f5f5;strokeColor=#666666;fontColor=#333333;" vertex="1" parent="1">
          <mxGeometry x="270" y="120" width="90" height="210" as="geometry" />
        </mxCell>
        <mxCell id="UDYRAPNue_7V9_LFrcEU-5" value="&lt;font style=&quot;font-size: 20px&quot;&gt;Conv 2D&lt;br&gt;&lt;br&gt;3*3*64&lt;/font&gt;" style="rounded=1;whiteSpace=wrap;html=1;fillColor=#f5f5f5;strokeColor=#666666;fontColor=#333333;" vertex="1" parent="1">
          <mxGeometry x="660" y="120" width="90" height="210" as="geometry" />
        </mxCell>
        <mxCell id="UDYRAPNue_7V9_LFrcEU-6" value="&lt;font style=&quot;font-size: 20px&quot;&gt;Conv 2D&lt;br&gt;&lt;br&gt;3*3*64&lt;/font&gt;" style="rounded=1;whiteSpace=wrap;html=1;fillColor=#f5f5f5;strokeColor=#666666;fontColor=#333333;" vertex="1" parent="1">
          <mxGeometry x="460" y="120" width="90" height="210" as="geometry" />
        </mxCell>
        <mxCell id="UDYRAPNue_7V9_LFrcEU-7" value="&lt;font style=&quot;font-size: 20px&quot;&gt;Max Pulling 2&lt;br&gt;2*2/2&lt;/font&gt;" style="rounded=1;whiteSpace=wrap;html=1;fillColor=#e1d5e7;strokeColor=#9673a6;" vertex="1" parent="1">
          <mxGeometry x="850" y="120" width="90" height="210" as="geometry" />
        </mxCell>
        <mxCell id="UDYRAPNue_7V9_LFrcEU-8" value="" style="shape=flexArrow;endArrow=classic;html=1;exitX=1;exitY=0.5;exitDx=0;exitDy=0;entryX=0;entryY=0.5;entryDx=0;entryDy=0;fillColor=#d5e8d4;strokeColor=#82b366;" edge="1" parent="1" source="UDYRAPNue_7V9_LFrcEU-1" target="UDYRAPNue_7V9_LFrcEU-4">
          <mxGeometry width="50" height="50" relative="1" as="geometry">
            <mxPoint x="210" y="270" as="sourcePoint" />
            <mxPoint x="260" y="220" as="targetPoint" />
          </mxGeometry>
        </mxCell>
        <mxCell id="UDYRAPNue_7V9_LFrcEU-9" value="" style="shape=flexArrow;endArrow=classic;html=1;exitX=1;exitY=0.5;exitDx=0;exitDy=0;entryX=0;entryY=0.5;entryDx=0;entryDy=0;fillColor=#d5e8d4;strokeColor=#82b366;" edge="1" parent="1" source="UDYRAPNue_7V9_LFrcEU-4" target="UDYRAPNue_7V9_LFrcEU-6">
          <mxGeometry width="50" height="50" relative="1" as="geometry">
            <mxPoint x="430" y="260" as="sourcePoint" />
            <mxPoint x="450" y="225" as="targetPoint" />
          </mxGeometry>
        </mxCell>
        <mxCell id="UDYRAPNue_7V9_LFrcEU-10" value="" style="shape=flexArrow;endArrow=classic;html=1;exitX=1;exitY=0.5;exitDx=0;exitDy=0;entryX=0;entryY=0.5;entryDx=0;entryDy=0;fillColor=#d5e8d4;strokeColor=#82b366;" edge="1" parent="1" source="UDYRAPNue_7V9_LFrcEU-6" target="UDYRAPNue_7V9_LFrcEU-5">
          <mxGeometry width="50" height="50" relative="1" as="geometry">
            <mxPoint x="600" y="260" as="sourcePoint" />
            <mxPoint x="650" y="225" as="targetPoint" />
          </mxGeometry>
        </mxCell>
        <mxCell id="UDYRAPNue_7V9_LFrcEU-11" value="&lt;font style=&quot;font-size: 16px&quot;&gt;Activation&amp;nbsp;&lt;br&gt;ReLU&lt;/font&gt;" style="text;html=1;strokeColor=none;fillColor=none;align=center;verticalAlign=middle;whiteSpace=wrap;rounded=0;" vertex="1" parent="1">
          <mxGeometry x="370" y="240" width="60" height="30" as="geometry" />
        </mxCell>
        <mxCell id="UDYRAPNue_7V9_LFrcEU-12" value="&lt;font style=&quot;font-size: 16px&quot;&gt;Activation&amp;nbsp;&lt;br&gt;ReLU&lt;/font&gt;" style="text;html=1;strokeColor=none;fillColor=none;align=center;verticalAlign=middle;whiteSpace=wrap;rounded=0;" vertex="1" parent="1">
          <mxGeometry x="570" y="240" width="60" height="30" as="geometry" />
        </mxCell>
        <mxCell id="UDYRAPNue_7V9_LFrcEU-13" value="" style="shape=flexArrow;endArrow=classic;html=1;exitX=1;exitY=0.5;exitDx=0;exitDy=0;entryX=0;entryY=0.5;entryDx=0;entryDy=0;fillColor=#d5e8d4;strokeColor=#82b366;" edge="1" parent="1" source="UDYRAPNue_7V9_LFrcEU-5" target="UDYRAPNue_7V9_LFrcEU-7">
          <mxGeometry width="50" height="50" relative="1" as="geometry">
            <mxPoint x="800" y="260" as="sourcePoint" />
            <mxPoint x="830" y="225" as="targetPoint" />
          </mxGeometry>
        </mxCell>
        <mxCell id="UDYRAPNue_7V9_LFrcEU-14" value="&lt;font style=&quot;font-size: 16px&quot;&gt;Activation&amp;nbsp;&lt;br&gt;ReLU&lt;/font&gt;" style="text;html=1;strokeColor=none;fillColor=none;align=center;verticalAlign=middle;whiteSpace=wrap;rounded=0;" vertex="1" parent="1">
          <mxGeometry x="770" y="240" width="60" height="30" as="geometry" />
        </mxCell>
        <mxCell id="UDYRAPNue_7V9_LFrcEU-15" value="&lt;font style=&quot;font-size: 20px&quot;&gt;Conv 2D&lt;br&gt;&lt;br&gt;3*3*128&lt;/font&gt;" style="rounded=1;whiteSpace=wrap;html=1;fillColor=#f5f5f5;strokeColor=#666666;fontColor=#333333;" vertex="1" parent="1">
          <mxGeometry x="850" y="430" width="90" height="210" as="geometry" />
        </mxCell>
        <mxCell id="UDYRAPNue_7V9_LFrcEU-16" value="&lt;font style=&quot;font-size: 20px&quot;&gt;Max Pulling 2&lt;br&gt;2*2/2&lt;/font&gt;" style="rounded=1;whiteSpace=wrap;html=1;fillColor=#e1d5e7;strokeColor=#9673a6;" vertex="1" parent="1">
          <mxGeometry x="660" y="430" width="90" height="210" as="geometry" />
        </mxCell>
        <mxCell id="UDYRAPNue_7V9_LFrcEU-17" value="" style="rounded=1;whiteSpace=wrap;html=1;fillColor=#b1ddf0;strokeColor=#10739e;" vertex="1" parent="1">
          <mxGeometry x="560" y="430" width="20" height="220" as="geometry" />
        </mxCell>
        <mxCell id="UDYRAPNue_7V9_LFrcEU-18" value="" style="rounded=1;whiteSpace=wrap;html=1;fillColor=#bac8d3;strokeColor=#23445d;" vertex="1" parent="1">
          <mxGeometry x="470" y="430" width="20" height="220" as="geometry" />
        </mxCell>
        <mxCell id="UDYRAPNue_7V9_LFrcEU-19" value="" style="rounded=1;whiteSpace=wrap;html=1;" vertex="1" parent="1">
          <mxGeometry x="390" y="430" width="20" height="220" as="geometry" />
        </mxCell>
        <mxCell id="UDYRAPNue_7V9_LFrcEU-20" value="" style="rounded=1;whiteSpace=wrap;html=1;fillColor=#fad7ac;strokeColor=#b46504;" vertex="1" parent="1">
          <mxGeometry x="280" y="430" width="20" height="220" as="geometry" />
        </mxCell>
        <mxCell id="UDYRAPNue_7V9_LFrcEU-21" value="" style="rounded=1;whiteSpace=wrap;html=1;fillColor=#bac8d3;strokeColor=#23445d;" vertex="1" parent="1">
          <mxGeometry x="190" y="430" width="20" height="220" as="geometry" />
        </mxCell>
        <mxCell id="UDYRAPNue_7V9_LFrcEU-22" value="" style="rounded=1;whiteSpace=wrap;html=1;fillColor=#cce5ff;strokeColor=#36393d;" vertex="1" parent="1">
          <mxGeometry x="70" y="430" width="40" height="220" as="geometry" />
        </mxCell>
        <mxCell id="UDYRAPNue_7V9_LFrcEU-23" value="" style="shape=flexArrow;endArrow=classic;html=1;exitX=0.5;exitY=1;exitDx=0;exitDy=0;entryX=0.5;entryY=0;entryDx=0;entryDy=0;fillColor=#d5e8d4;strokeColor=#82b366;" edge="1" parent="1" source="UDYRAPNue_7V9_LFrcEU-7" target="UDYRAPNue_7V9_LFrcEU-15">
          <mxGeometry width="50" height="50" relative="1" as="geometry">
            <mxPoint x="1010" y="410" as="sourcePoint" />
            <mxPoint x="1060" y="360" as="targetPoint" />
          </mxGeometry>
        </mxCell>
        <mxCell id="UDYRAPNue_7V9_LFrcEU-24" value="" style="shape=flexArrow;endArrow=classic;html=1;fillColor=#d5e8d4;strokeColor=#82b366;entryX=1;entryY=0.5;entryDx=0;entryDy=0;exitX=0;exitY=0.5;exitDx=0;exitDy=0;" edge="1" parent="1" source="UDYRAPNue_7V9_LFrcEU-15" target="UDYRAPNue_7V9_LFrcEU-16">
          <mxGeometry width="50" height="50" relative="1" as="geometry">
            <mxPoint x="839" y="535" as="sourcePoint" />
            <mxPoint x="764" y="528" as="targetPoint" />
          </mxGeometry>
        </mxCell>
        <mxCell id="UDYRAPNue_7V9_LFrcEU-25" value="" style="shape=flexArrow;endArrow=classic;html=1;fillColor=#d5e8d4;strokeColor=#82b366;entryX=1;entryY=0.5;entryDx=0;entryDy=0;exitX=0;exitY=0.533;exitDx=0;exitDy=0;exitPerimeter=0;" edge="1" parent="1" source="UDYRAPNue_7V9_LFrcEU-16" target="UDYRAPNue_7V9_LFrcEU-17">
          <mxGeometry width="50" height="50" relative="1" as="geometry">
            <mxPoint x="649" y="535" as="sourcePoint" />
            <mxPoint x="595" y="540" as="targetPoint" />
          </mxGeometry>
        </mxCell>
        <mxCell id="UDYRAPNue_7V9_LFrcEU-26" value="" style="shape=flexArrow;endArrow=classic;html=1;entryX=1;entryY=0.5;entryDx=0;entryDy=0;exitX=0;exitY=0.5;exitDx=0;exitDy=0;fillColor=#d5e8d4;strokeColor=#82b366;" edge="1" parent="1" source="UDYRAPNue_7V9_LFrcEU-17" target="UDYRAPNue_7V9_LFrcEU-18">
          <mxGeometry width="50" height="50" relative="1" as="geometry">
            <mxPoint x="490" y="600" as="sourcePoint" />
            <mxPoint x="540" y="550" as="targetPoint" />
          </mxGeometry>
        </mxCell>
        <mxCell id="UDYRAPNue_7V9_LFrcEU-27" value="" style="shape=flexArrow;endArrow=classic;html=1;entryX=1;entryY=0.5;entryDx=0;entryDy=0;exitX=0;exitY=0.5;exitDx=0;exitDy=0;fillColor=#d5e8d4;strokeColor=#82b366;" edge="1" parent="1" source="UDYRAPNue_7V9_LFrcEU-18" target="UDYRAPNue_7V9_LFrcEU-19">
          <mxGeometry width="50" height="50" relative="1" as="geometry">
            <mxPoint x="410" y="600" as="sourcePoint" />
            <mxPoint x="460" y="550" as="targetPoint" />
          </mxGeometry>
        </mxCell>
        <mxCell id="UDYRAPNue_7V9_LFrcEU-28" value="" style="shape=flexArrow;endArrow=classic;html=1;entryX=1;entryY=0.5;entryDx=0;entryDy=0;exitX=0;exitY=0.5;exitDx=0;exitDy=0;fillColor=#d5e8d4;strokeColor=#82b366;" edge="1" parent="1" source="UDYRAPNue_7V9_LFrcEU-19" target="UDYRAPNue_7V9_LFrcEU-20">
          <mxGeometry width="50" height="50" relative="1" as="geometry">
            <mxPoint x="340" y="600" as="sourcePoint" />
            <mxPoint x="390" y="550" as="targetPoint" />
          </mxGeometry>
        </mxCell>
        <mxCell id="UDYRAPNue_7V9_LFrcEU-29" value="" style="shape=flexArrow;endArrow=classic;html=1;entryX=1;entryY=0.5;entryDx=0;entryDy=0;exitX=0;exitY=0.5;exitDx=0;exitDy=0;fillColor=#d5e8d4;strokeColor=#82b366;" edge="1" parent="1" source="UDYRAPNue_7V9_LFrcEU-20" target="UDYRAPNue_7V9_LFrcEU-21">
          <mxGeometry width="50" height="50" relative="1" as="geometry">
            <mxPoint x="200" y="610" as="sourcePoint" />
            <mxPoint x="250" y="560" as="targetPoint" />
          </mxGeometry>
        </mxCell>
        <mxCell id="UDYRAPNue_7V9_LFrcEU-30" value="" style="shape=flexArrow;endArrow=classic;html=1;entryX=1;entryY=0.5;entryDx=0;entryDy=0;exitX=0;exitY=0.5;exitDx=0;exitDy=0;fillColor=#d5e8d4;strokeColor=#82b366;" edge="1" parent="1" source="UDYRAPNue_7V9_LFrcEU-21" target="UDYRAPNue_7V9_LFrcEU-22">
          <mxGeometry width="50" height="50" relative="1" as="geometry">
            <mxPoint x="140" y="590" as="sourcePoint" />
            <mxPoint x="190" y="540" as="targetPoint" />
          </mxGeometry>
        </mxCell>
        <mxCell id="UDYRAPNue_7V9_LFrcEU-31" value="&lt;span style=&quot;font-size: 16px&quot;&gt;Flattern&lt;/span&gt;" style="text;html=1;strokeColor=none;fillColor=none;align=center;verticalAlign=middle;whiteSpace=wrap;rounded=0;" vertex="1" parent="1">
          <mxGeometry x="540" y="390" width="60" height="30" as="geometry" />
        </mxCell>
        <mxCell id="UDYRAPNue_7V9_LFrcEU-32" value="&lt;span style=&quot;font-size: 16px&quot;&gt;Dense&lt;br&gt;1280&lt;br&gt;&lt;/span&gt;" style="text;html=1;strokeColor=none;fillColor=none;align=center;verticalAlign=middle;whiteSpace=wrap;rounded=0;" vertex="1" parent="1">
          <mxGeometry x="450" y="390" width="60" height="30" as="geometry" />
        </mxCell>
        <mxCell id="UDYRAPNue_7V9_LFrcEU-33" value="&lt;span style=&quot;font-size: 16px&quot;&gt;Activation&lt;br&gt;ReLU&lt;br&gt;&lt;/span&gt;" style="text;html=1;strokeColor=none;fillColor=none;align=center;verticalAlign=middle;whiteSpace=wrap;rounded=0;" vertex="1" parent="1">
          <mxGeometry x="370" y="390" width="60" height="30" as="geometry" />
        </mxCell>
        <mxCell id="UDYRAPNue_7V9_LFrcEU-34" value="&lt;span style=&quot;font-size: 16px&quot;&gt;Dropout&lt;br&gt;0.5&lt;br&gt;&lt;/span&gt;" style="text;html=1;strokeColor=none;fillColor=none;align=center;verticalAlign=middle;whiteSpace=wrap;rounded=0;" vertex="1" parent="1">
          <mxGeometry x="260" y="390" width="60" height="30" as="geometry" />
        </mxCell>
        <mxCell id="UDYRAPNue_7V9_LFrcEU-35" value="&lt;span style=&quot;font-size: 16px&quot;&gt;Dense 4&lt;/span&gt;" style="text;html=1;strokeColor=none;fillColor=none;align=center;verticalAlign=middle;whiteSpace=wrap;rounded=0;" vertex="1" parent="1">
          <mxGeometry x="170" y="390" width="60" height="30" as="geometry" />
        </mxCell>
        <mxCell id="UDYRAPNue_7V9_LFrcEU-36" value="&lt;span style=&quot;font-size: 16px&quot;&gt;Ouput&lt;/span&gt;" style="text;html=1;strokeColor=none;fillColor=none;align=center;verticalAlign=middle;whiteSpace=wrap;rounded=0;" vertex="1" parent="1">
          <mxGeometry x="60" y="390" width="60" height="30" as="geometry" />
        </mxCell>
        <mxCell id="UDYRAPNue_7V9_LFrcEU-37" value="&lt;font style=&quot;font-size: 16px&quot;&gt;Activation&amp;nbsp;&lt;br&gt;ReLU&lt;/font&gt;" style="text;html=1;strokeColor=none;fillColor=none;align=center;verticalAlign=middle;whiteSpace=wrap;rounded=0;" vertex="1" parent="1">
          <mxGeometry x="779" y="550" width="60" height="30" as="geometry" />
        </mxCell>
      </root>
    </mxGraphModel>
  </diagram>
</mxfile>
